<svg xmlns="http://www.w3.org/2000/svg" class="svg-icon" style="width: 1em; height: 1em;vertical-align: middle;fill: currentColor;overflow: hidden;" viewBox="0 0 1024 1024" version="1.1"><path d="M512 912.695652c221.295304 0 400.695652-179.400348 400.695652-400.695652S733.295304 111.304348 512 111.304348 111.304348 290.704696 111.304348 512s179.400348 400.695652 400.695652 400.695652z" fill="#0B77E3" fill-opacity=".2"/><path d="M155.826087 300.521739v534.249739A11.130435 11.130435 0 0 0 166.878609 845.913043h690.142608C863.165217 845.913043 868.173913 840.859826 868.173913 834.771478V300.521739H155.826087z" fill="#FFFFFF"/><path d="M211.478261 768.01113A11.130435 11.130435 0 0 0 222.608696 779.130435h244.869565c6.144 0 11.130435-4.930783 11.130435-11.119305v-11.152695A11.130435 11.130435 0 0 0 467.478261 745.73913H222.608696c-6.144 0-11.130435 4.930783-11.130435 11.119305v11.152695z m289.391304 0c0 6.144 4.964174 11.119304 11.108174 11.119305h77.957565a11.085913 11.085913 0 0 0 11.108174-11.119305v-11.152695a11.108174 11.108174 0 0 0-11.108174-11.119305h-77.957565a11.074783 11.074783 0 0 0-11.108174 11.119305v11.152695z m122.434783 0c0 6.144 4.930783 11.119304 11.119304 11.119305h11.152696a11.085913 11.085913 0 0 0 11.119304-11.119305v-11.152695a11.085913 11.085913 0 0 0-11.119304-11.119305h-11.152696a11.085913 11.085913 0 0 0-11.119304 11.119305v11.152695z m55.652174 0c0 6.144 4.930783 11.119304 11.119304 11.119305h11.152696a11.085913 11.085913 0 0 0 11.119304-11.119305v-11.152695a11.085913 11.085913 0 0 0-11.119304-11.119305h-11.152696a11.085913 11.085913 0 0 0-11.119304 11.119305v11.152695z m-467.478261-55.652173c0 6.144 4.930783 11.119304 11.119304 11.119304h11.152696a11.085913 11.085913 0 0 0 11.119304-11.119304v-11.152696a11.085913 11.085913 0 0 0-11.119304-11.119304h-11.152696a11.085913 11.085913 0 0 0-11.119304 11.119304v11.152696z m55.652174 0c0 6.144 5.064348 11.119304 11.074782 11.119304h256.111305c6.121739 0 11.074783-4.930783 11.074782-11.119304v-11.152696c0-6.144-5.064348-11.119304-11.074782-11.119304h-256.111305a11.063652 11.063652 0 0 0-11.074782 11.119304v11.152696z m300.521739 0c0 6.144 4.897391 11.119304 11.152696 11.119304h222.564173A11.108174 11.108174 0 0 0 812.521739 712.358957v-11.152696A11.074783 11.074783 0 0 0 801.369043 690.086957H578.80487a11.108174 11.108174 0 0 0-11.152696 11.119304v11.152696z m-356.173913-55.652174c0 6.144 4.997565 11.119304 11.208348 11.119304h144.539826A11.130435 11.130435 0 0 0 378.434783 656.706783v-11.152696c0-6.144-4.997565-11.119304-11.208348-11.119304H222.686609a11.130435 11.130435 0 0 0-11.208348 11.119304v11.152696z m189.217391 0c0 6.144 4.930783 11.119304 11.119305 11.119304h11.152695a11.085913 11.085913 0 0 0 11.119305-11.119304v-11.152696a11.085913 11.085913 0 0 0-11.119305-11.119304h-11.152695a11.085913 11.085913 0 0 0-11.119305 11.119304v11.152696z m55.652174 0c0 6.144 4.930783 11.119304 11.119304 11.119304h11.152696a11.085913 11.085913 0 0 0 11.119304-11.119304v-11.152696a11.085913 11.085913 0 0 0-11.119304-11.119304h-11.152696a11.085913 11.085913 0 0 0-11.119304 11.119304v11.152696z m55.652174 0c0 6.144 4.953043 11.119304 11.130435 11.119304h155.826087c6.144 0 11.130435-4.930783 11.130435-11.119304v-11.152696A11.108174 11.108174 0 0 0 678.956522 634.434783H523.130435c-6.144 0-11.130435 4.930783-11.130435 11.119304v11.152696z m-300.521739-55.652174c0 6.144 4.964174 11.119304 11.108174 11.119304h77.957565a11.085913 11.085913 0 0 0 11.108174-11.119304v-11.152696a11.108174 11.108174 0 0 0-11.108174-11.119304h-77.957565a11.074783 11.074783 0 0 0-11.108174 11.119304v11.152696z m122.434782 0c0 6.144 5.008696 11.119304 11.208348 11.119304h133.409392A11.130435 11.130435 0 0 0 489.73913 601.054609v-11.152696c0-6.144-5.008696-11.119304-11.208347-11.119304H345.121391a11.130435 11.130435 0 0 0-11.208348 11.119304v11.152696z m178.086957 0c0 6.144 4.886261 11.119304 11.163826 11.119304h233.672348A11.108174 11.108174 0 0 0 768 601.054609v-11.152696A11.074783 11.074783 0 0 0 756.836174 578.782609H523.163826a11.108174 11.108174 0 0 0-11.163826 11.119304v11.152696z m-300.521739-55.652174c0 6.144 4.941913 11.119304 11.130435 11.119304h33.391304c6.144 0 11.130435-4.930783 11.130435-11.119304v-11.152696A11.097043 11.097043 0 0 0 256 523.130435h-33.391304c-6.144 0-11.130435 4.930783-11.130435 11.119304v11.152696z m77.913043 0c0 6.144 4.930783 11.119304 11.119305 11.119304h11.152695a11.085913 11.085913 0 0 0 11.119305-11.119304v-11.152696a11.085913 11.085913 0 0 0-11.119305-11.119304h-11.152695a11.085913 11.085913 0 0 0-11.119305 11.119304v11.152696z m55.652174 0c0 6.144 5.075478 11.119304 11.074783 11.119304h89.154782c6.121739 0 11.074783-4.930783 11.074783-11.119304v-11.152696c0-6.144-5.075478-11.119304-11.074783-11.119304h-89.154782a11.063652 11.063652 0 0 0-11.074783 11.119304v11.152696z m-133.565217-55.652174a11.130435 11.130435 0 0 0 11.074782 11.119304h189.328696c6.121739 0 11.074783-4.930783 11.074783-11.119304v-11.152696a11.130435 11.130435 0 0 0-11.074783-11.119304h-189.328696a11.063652 11.063652 0 0 0-11.074782 11.119304v11.152696z m0-55.652174c0 6.144 5.008696 11.119304 11.208348 11.119304h133.409391A11.130435 11.130435 0 0 0 367.304348 434.098087v-11.152696c0-6.144-5.008696-11.119304-11.208348-11.119304H222.686609a11.130435 11.130435 0 0 0-11.208348 11.119304v11.152696z m178.086956 0c0 6.144 4.930783 11.119304 11.119305 11.119304h11.152695a11.085913 11.085913 0 0 0 11.119305-11.119304v-11.152696a11.085913 11.085913 0 0 0-11.119305-11.119304h-11.152695a11.085913 11.085913 0 0 0-11.119305 11.119304v11.152696z m-178.086956-55.652174c0 6.144 4.930783 11.119304 11.119304 11.119304h11.152696a11.085913 11.085913 0 0 0 11.119304-11.119304v-11.152696a11.085913 11.085913 0 0 0-11.119304-11.119304h-11.152696a11.085913 11.085913 0 0 0-11.119304 11.119304v11.152696z m55.652174 0c0 6.144 4.930783 11.119304 11.119304 11.119304h11.152696a11.085913 11.085913 0 0 0 11.119304-11.119304v-11.152696a11.085913 11.085913 0 0 0-11.119304-11.119304h-11.152696a11.085913 11.085913 0 0 0-11.119304 11.119304v11.152696z m55.652174 0v-11.152696A11.108174 11.108174 0 0 1 333.935304 356.173913h111.259826c6.077217 0 11.152696 4.975304 11.152696 11.119304v11.152696a11.108174 11.108174 0 0 1-11.152696 11.119304h-111.259826A11.186087 11.186087 0 0 1 322.782609 378.445913zM155.826087 200.314435c0-6.121739 4.930783-11.097043 11.186087-11.097044h689.975652c6.177391 0 11.186087 5.042087 11.186087 11.097044V278.26087H155.826087v-77.946435z" fill="#40A0FF"/><path d="M623.304348 768.01113c0 6.144 4.930783 11.119304 11.119304 11.119305h11.152696a11.085913 11.085913 0 0 0 11.119304-11.119305v-11.152695a11.085913 11.085913 0 0 0-11.119304-11.119305h-11.152696a11.085913 11.085913 0 0 0-11.119304 11.119305v11.152695z m-411.826087-55.652173c0 6.144 4.930783 11.119304 11.119304 11.119304h11.152696a11.085913 11.085913 0 0 0 11.119304-11.119304v-11.152696a11.085913 11.085913 0 0 0-11.119304-11.119304h-11.152696a11.085913 11.085913 0 0 0-11.119304 11.119304v11.152696z m356.173913 0c0 6.144 4.897391 11.119304 11.152696 11.119304h222.564173A11.108174 11.108174 0 0 0 812.521739 712.358957v-11.152696A11.074783 11.074783 0 0 0 801.369043 690.086957H578.80487a11.108174 11.108174 0 0 0-11.152696 11.119304v11.152696z m-166.956522-55.652174c0 6.144 4.930783 11.119304 11.119305 11.119304h11.152695a11.085913 11.085913 0 0 0 11.119305-11.119304v-11.152696a11.085913 11.085913 0 0 0-11.119305-11.119304h-11.152695a11.085913 11.085913 0 0 0-11.119305 11.119304v11.152696z m55.652174 0c0 6.144 4.930783 11.119304 11.119304 11.119304h11.152696a11.085913 11.085913 0 0 0 11.119304-11.119304v-11.152696a11.085913 11.085913 0 0 0-11.119304-11.119304h-11.152696a11.085913 11.085913 0 0 0-11.119304 11.119304v11.152696z m-244.869565-55.652174c0 6.144 4.964174 11.119304 11.108174 11.119304h77.957565a11.085913 11.085913 0 0 0 11.108174-11.119304v-11.152696a11.108174 11.108174 0 0 0-11.108174-11.119304h-77.957565a11.074783 11.074783 0 0 0-11.108174 11.119304v11.152696z m133.565217-55.652174c0 6.144 5.075478 11.119304 11.074783 11.119304h89.154782c6.121739 0 11.074783-4.930783 11.074783-11.119304v-11.152696c0-6.144-5.075478-11.119304-11.074783-11.119304h-89.154782a11.063652 11.063652 0 0 0-11.074783 11.119304v11.152696z m-133.565217-111.304348c0 6.144 5.008696 11.119304 11.208348 11.119304h133.409391A11.130435 11.130435 0 0 0 367.304348 434.098087v-11.152696c0-6.144-5.008696-11.119304-11.208348-11.119304H222.686609a11.130435 11.130435 0 0 0-11.208348 11.119304v11.152696z m55.652174-55.652174c0 6.144 4.930783 11.119304 11.119304 11.119304h11.152696a11.085913 11.085913 0 0 0 11.119304-11.119304v-11.152696a11.085913 11.085913 0 0 0-11.119304-11.119304h-11.152696a11.085913 11.085913 0 0 0-11.119304 11.119304v11.152696z" fill="#A6D2FF"/><path d="M133.565217 200.347826c0-18.476522 14.925913-33.391304 33.446957-33.391304h689.975652A33.369043 33.369043 0 0 1 890.434783 200.347826v634.434783c0 18.476522-14.925913 33.391304-33.446957 33.391304h-689.975652A33.369043 33.369043 0 0 1 133.565217 834.782609V200.347826z m22.26087 100.173913v534.249739A11.130435 11.130435 0 0 0 166.878609 845.913043h690.142608C863.165217 845.913043 868.173913 840.859826 868.173913 834.771478V300.521739H155.826087z m0-100.207304V278.26087h712.347826v-77.946435c0-6.054957-5.008696-11.097043-11.186087-11.097044h-689.975652a11.097043 11.097043 0 0 0-11.186087 11.097044zM726.739478 390.121739l55.095652 55.095652-55.095652 55.095652a11.130435 11.130435 0 1 0 15.738435 15.738435l62.96487-62.964869a11.130435 11.130435 0 0 0 0-15.738435l-62.96487-62.96487a11.130435 11.130435 0 0 0-15.738435 15.738435z m-155.035826 0a11.130435 11.130435 0 1 0-15.738435-15.738435l-62.964869 62.96487a11.130435 11.130435 0 0 0 0 15.738435l62.964869 62.964869a11.130435 11.130435 0 1 0 15.738435-15.738435L516.608 445.217391l55.095652-55.095652z m117.537391-7.401739l-55.652173 133.565217c-5.721043 13.690435-26.267826 5.13113-20.557913-8.570434l55.652173-133.565218c5.709913-13.690435 26.256696-5.13113 20.546783 8.570435zM200.347826 256a22.26087 22.26087 0 1 1 0-44.521739 22.26087 22.26087 0 0 1 0 44.521739z m66.782609 0a22.26087 22.26087 0 1 1 0-44.521739 22.26087 22.26087 0 0 1 0 44.521739z m66.782608 0a22.26087 22.26087 0 1 1 0-44.521739 22.26087 22.26087 0 0 1 0 44.521739z" fill="#005CB9"/><path d="M890.434783 578.671304v119.117913l-79.33774 79.33774c-19.645217 19.645217-48.016696 7.635478-47.994434-20.068174l0.044521-44.644174c-10.807652 1.26887-23.730087 4.897391-38.811826 11.809391-13.545739 6.199652-26.457043 14.981565-38.522434 25.711304a207.137391 207.137391 0 0 0-24.331131 25.755826 139.130435 139.130435 0 0 0-8.047304 10.98574l-0.690087 1.024c-16.027826 22.528-46.547478 15.693913-50.075826-11.698087a68.118261 68.118261 0 0 1-0.734609-4.34087c-5.186783-37.142261 8.047304-83.556174 52.902957-130.949565 35.528348-37.542957 73.449739-60.594087 108.443826-72.815305l0.044521-48.294956c0.022261-27.725913 28.582957-39.457391 48.11687-19.923478L890.434783 578.671304z" fill="#000000" opacity=".1"/><path d="M807.69113 713.026783l-0.066782 66.31513c0 7.991652 4.474435 9.828174 9.99513 4.296348L930.760348 670.497391a14.313739 14.313739 0 0 0-0.089044-20.101565L817.975652 537.677913c-5.531826-5.520696-10.106435-3.695304-10.117565 4.207304l-0.055652 64.74574c-18.309565 4.763826-66.982957 21.392696-114.532174 71.635478-60.14887 63.577043-46.336 116.335304-46.336 116.335304 0.634435 7.791304 5.353739 8.904348 9.939478 2.448696 0 0 30.118957-47.749565 80.461913-70.800696 35.072-16.072348 59.046957-15.215304 70.366609-13.222956z" fill="#40A0FF"/><path d="M807.624348 779.353043c0 7.980522 4.474435 9.817043 9.99513 4.285218L930.760348 670.497391a14.313739 14.313739 0 0 0-0.089044-20.101565L817.975652 537.677913c-5.531826-5.520696-10.106435-3.695304-10.117565 4.207304l-0.055652 64.74574c-18.309565 4.763826-66.982957 21.392696-114.532174 71.635478-60.14887 63.577043-46.336 116.335304-46.336 116.335304 0.634435 7.791304 5.353739 8.904348 9.939478 2.448696 0 0 30.118957-47.749565 80.461913-70.800696 35.072-16.072348 59.046957-15.215304 70.366609-13.222956l-0.066783 66.31513z m-61.028174-32.868173c-13.545739 6.199652-26.457043 14.981565-38.522435 25.711304a207.137391 207.137391 0 0 0-24.33113 25.755826 139.130435 139.130435 0 0 0-8.047305 10.985739l-0.690087 1.024c-16.027826 22.528-46.547478 15.693913-50.075826-11.698087a68.118261 68.118261 0 0 1-0.734608-4.340869c-5.186783-37.142261 8.047304-83.556174 52.902956-130.949566 35.528348-37.542957 73.449739-60.594087 108.443826-72.815304l0.044522-48.294956c0.022261-27.725913 28.582957-39.457391 48.11687-19.923479l112.706782 112.706783a36.574609 36.574609 0 0 1 0.100174 51.589565L833.357913 799.387826c-19.645217 19.645217-48.016696 7.635478-47.994435-20.068174l0.044522-44.644174c-10.807652 1.26887-23.730087 4.897391-38.811826 11.809392z" fill="#005CB9"/></svg>