<svg xmlns="http://www.w3.org/2000/svg" x="0px" y="0px"
width="50" height="50"
viewBox="0 0 172 172"
style=" fill:#000000;"><g fill="none" fill-rule="nonzero" stroke="none" stroke-width="1" stroke-linecap="butt" stroke-linejoin="miter" stroke-miterlimit="10" stroke-dasharray="" stroke-dashoffset="0" font-family="none" font-weight="none" font-size="none" text-anchor="none" style="mix-blend-mode: normal"><path d="M0,172v-172h172v172z" fill="none"></path><g fill="#2972d4"><path d="M82.56,6.88c-24.65792,0 -44.72,28.52561 -44.72,63.59297c0,17.52572 5.10839,33.25853 13.21578,44.74016c-1.93715,2.52358 -2.89578,5.58151 -2.89578,8.62687c0,3.34444 1.09626,6.73511 3.44672,9.37937c2.35046,2.64427 6.01328,4.38063 10.31328,4.38063c4.3,0 7.96282,-1.73636 10.31328,-4.38063c2.35046,-2.64426 3.44672,-6.03493 3.44672,-9.37937c0,-3.34444 -1.09626,-6.73511 -3.44672,-9.37937c-2.35046,-2.64427 -6.01328,-4.38063 -10.31328,-4.38063c-2.00234,0 -3.84482,0.40563 -5.50265,1.075c-7.16443,-10.30179 -11.69735,-24.65951 -11.69735,-40.68203c0,-31.27304 16.9764,-56.71297 37.84,-56.71297c18.64136,0 34.13587,20.3283 37.23531,46.95735c2.43208,0.92536 4.84529,1.96854 7.23609,3.1175c-2.34264,-31.9576 -21.389,-56.95485 -44.4714,-56.95485zM75.68,51.6c-4.3,0 -7.96282,1.73636 -10.31328,4.38063c-2.35046,2.64426 -3.44672,6.03493 -3.44672,9.37937c0,3.34444 1.09626,6.73511 3.44672,9.37937c2.35046,2.64427 6.01328,4.38063 10.31328,4.38063c4.3,0 7.96282,-1.73636 10.31328,-4.38063c1.46903,-1.65266 2.3949,-3.60819 2.92265,-5.65047c12.30691,-0.52926 26.13791,3.10674 38.85453,10.72985c27.15536,16.27808 40.83377,44.66351 30.48969,63.27047c-3.69456,6.64264 -10.14429,11.35851 -18.64453,13.63235c-11.90928,3.19232 -26.53767,1.22974 -40.50063,-5.0861c-2.01584,1.62024 -4.14778,3.1533 -6.3425,4.63594c11.438,5.77576 23.5425,8.83516 34.7225,8.83516c4.85384,0 9.5323,-0.57056 13.9011,-1.74016c10.34408,-2.7692 18.25742,-8.62693 22.87734,-16.93797c12.12256,-21.81648 -2.66594,-54.34211 -32.9689,-72.50875c-13.67762,-8.20467 -28.70458,-12.21805 -42.25422,-11.77797c-0.49038,-2.22935 -1.46516,-4.37024 -3.05703,-6.16109c-2.35046,-2.64427 -6.01328,-4.38063 -10.31328,-4.38063zM75.68,58.48c2.58,0 4.07718,0.84364 5.16672,2.06937c1.08954,1.22574 1.71328,2.99507 1.71328,4.81063c0,1.81556 -0.62374,3.58489 -1.71328,4.81063c-1.08954,1.22573 -2.58672,2.06937 -5.16672,2.06937c-2.58,0 -4.07718,-0.84364 -5.16672,-2.06937c-1.08954,-1.22574 -1.71328,-2.99507 -1.71328,-4.81063c0,-1.81556 0.62374,-3.58489 1.71328,-4.81063c1.08954,-1.22573 2.58672,-2.06937 5.16672,-2.06937zM31.51766,80.26219c-23.95616,18.7136 -34.60662,46.69585 -23.78438,66.16625c4.61992,8.31104 12.53326,14.16205 22.87734,16.93125c4.37224,1.1696 9.04725,1.74688 13.90109,1.74688c13.072,0 27.42223,-4.15681 40.48047,-11.98625c15.6717,-9.39543 26.95804,-22.63035 32.70016,-36.23422c3.97276,-0.1904 7.3694,-1.81874 9.58094,-4.30672c2.35046,-2.64426 3.44672,-6.03493 3.44672,-9.37937c0,-3.34444 -1.09626,-6.73511 -3.44672,-9.37937c-2.35046,-2.64427 -6.01328,-4.38063 -10.31328,-4.38063c-4.3,0 -7.96282,1.73636 -10.31328,4.38063c-2.35046,2.64426 -3.44672,6.03493 -3.44672,9.37937c0,3.34444 1.09626,6.73511 3.44672,9.37937c1.14233,1.28513 2.6085,2.34294 4.29328,3.10406c-5.39547,11.72623 -15.59956,23.21195 -29.4886,31.53781c-16.34,9.80056 -34.68095,13.35311 -49.06703,9.50031c-8.50368,-2.27728 -14.94669,-6.98971 -18.63781,-13.63235c-8.74448,-15.73112 -0.27912,-38.4177 18.94016,-54.90562c-0.4988,-2.58344 -0.88698,-5.23133 -1.16906,-7.92141zM116.96,96.32c2.58,0 4.07718,0.84364 5.16672,2.06937c1.08954,1.22574 1.71328,2.99507 1.71328,4.81063c0,1.81556 -0.62374,3.58489 -1.71328,4.81063c-1.08954,1.22573 -2.58672,2.06937 -5.16672,2.06937c-2.58,0 -4.07718,-0.84364 -5.16672,-2.06937c-1.08954,-1.22574 -1.71328,-2.99507 -1.71328,-4.81063c0,-1.81556 0.62374,-3.58489 1.71328,-4.81063c1.08954,-1.22573 2.58672,-2.06937 5.16672,-2.06937zM61.92,116.96c2.58,0 4.07718,0.84364 5.16672,2.06937c1.08954,1.22574 1.71328,2.99507 1.71328,4.81063c0,1.81556 -0.62374,3.58489 -1.71328,4.81063c-1.08954,1.22573 -2.58672,2.06937 -5.16672,2.06937c-2.58,0 -4.07718,-0.84364 -5.16672,-2.06937c-1.08954,-1.22574 -1.71328,-2.99507 -1.71328,-4.81063c0,-1.81556 0.62374,-3.58489 1.71328,-4.81063c1.08954,-1.22573 2.58672,-2.06937 5.16672,-2.06937z"></path></g></g></svg>