<svg xmlns="http://www.w3.org/2000/svg" x="0px" y="0px"
width="50" height="50"
viewBox="0 0 172 172"
style=" fill:#000000;"><g fill="none" fill-rule="nonzero" stroke="none" stroke-width="1" stroke-linecap="butt" stroke-linejoin="miter" stroke-miterlimit="10" stroke-dasharray="" stroke-dashoffset="0" font-family="none" font-weight="none" font-size="none" text-anchor="none" style="mix-blend-mode: normal"><path d="M0,172v-172h172v172z" fill="none"></path><g fill="#2979d4"><path d="M30.96,13.76c-9.49784,0 -17.2,7.70216 -17.2,17.2v110.08c0,9.49784 7.70216,17.2 17.2,17.2h110.08c9.49784,0 17.2,-7.70216 17.2,-17.2v-110.08c0,-9.49784 -7.70216,-17.2 -17.2,-17.2zM65.36,34.4c8.2216,0 14.89547,6.39975 14.89547,14.27735c0,4.1624 -1.85814,7.94828 -4.85094,10.52828c4.3344,3.0616 7.15547,7.97892 7.15547,13.55172c0,9.1848 -7.7056,16.68265 -17.2,16.68265c-9.4944,0 -17.2,-7.49785 -17.2,-16.68265h6.88c0,5.4008 4.644,9.80265 10.32,9.80265c5.676,0 10.32,-4.40185 10.32,-9.80265c0,-5.4008 -4.644,-9.80266 -10.32,-9.80266v-6.88c4.4376,0 8.01547,-3.30374 8.01547,-7.39734c0,-4.0936 -3.57787,-7.39735 -8.01547,-7.39735c-4.4376,0 -8.01547,3.30375 -8.01547,7.39735h-6.88c0,-7.8776 6.67387,-14.27735 14.89547,-14.27735zM107.15735,34.4c6.1576,0 17.75094,3.74691 17.75094,17.88531c0,10.3888 -8.49815,15.41711 -15.99735,19.82031c-6.192,3.6808 -10.49361,6.46397 -11.97281,10.45437h26.90187v6.88h-34.4v-3.44c0,-10.3888 8.49815,-15.4104 15.99735,-19.8136c7.8088,-4.6096 12.59094,-7.88109 12.59094,-13.90109c0,-10.6984 -9.73574,-11.00531 -10.87094,-11.00531c-10.2168,0 -10.80295,9.18803 -10.83735,11.04563l-6.88,-0.04031c0,-6.192 3.71655,-17.88531 17.71735,-17.88531zM59.20563,103.71735h6.83969v12.51703h0.1075c0.8256,-1.2728 1.96241,-2.19595 3.37281,-2.81515c1.4448,-0.5848 2.91997,-0.89359 4.46797,-0.89359c1.2384,0 2.47787,0.27009 3.68187,0.78609c1.2384,0.516 2.33571,1.30613 3.2989,2.33813c0.9976,1.0664 1.79283,2.44724 2.41203,4.09844c0.5848,1.6512 0.8936,3.6085 0.8936,5.8789c0,2.2704 -0.3088,4.26802 -0.8936,5.91922c-0.6192,1.6512 -1.41443,2.99173 -2.41203,4.05813c-0.9632,1.0664 -2.0605,1.85572 -3.2989,2.37172c-1.204,0.516 -2.44347,0.75922 -3.68187,0.75922c-1.8232,0 -3.47333,-0.2752 -4.91813,-0.86c-1.4448,-0.5848 -2.54291,-1.58025 -3.26531,-2.95625h-0.1075v3.19813h-6.49703zM88.82187,103.71735h6.84641v5.63703h-6.84641zM102.89094,105.7464h6.81281v7.46453h5.0189v4.57547h-4.98531v12.31547c0,1.1696 0.17254,1.92533 0.55094,2.33813c0.4128,0.3784 1.16852,0.55094 2.33812,0.55094c0.3784,0 0.75788,0.00081 1.10188,-0.03359c0.344,-0.0344 0.68477,-0.0723 0.99437,-0.1411v5.3011c-0.5848,0.1032 -1.20588,0.13357 -1.92828,0.16797c-0.688,0.0344 -1.37465,0.0739 -2.06265,0.0739c-1.0664,0 -2.06024,-0.07068 -3.02344,-0.20828c-0.9288,-0.172 -1.75601,-0.4472 -2.51281,-0.86c-0.688,-0.4128 -1.2736,-0.99599 -1.6864,-1.78719c-0.4128,-0.7568 -0.61813,-1.79175 -0.61813,-3.03015v-14.68719h-4.16562v-4.57547h4.16562zM88.82187,113.21094h6.84641v24.90641h-6.84641zM71.62187,117.68563c-0.9976,0 -1.85679,0.20452 -2.61359,0.65172c-0.7224,0.4472 -1.3459,1.03119 -1.8275,1.75359c-0.4816,0.7568 -0.82076,1.58321 -1.06156,2.54641c-0.2064,0.9632 -0.30906,1.99063 -0.30906,3.05703c0,0.9976 0.10266,1.99977 0.30906,2.96297c0.2408,0.9632 0.57996,1.8232 1.06156,2.58c0.4816,0.7224 1.1051,1.30639 1.8275,1.75359c0.7568,0.4128 1.616,0.65172 2.61359,0.65172c1.032,0 1.8912,-0.23892 2.6136,-0.65172c0.7224,-0.4472 1.33918,-1.03119 1.82078,-1.75359c0.4816,-0.7568 0.82748,-1.6168 1.06828,-2.58c0.2064,-0.9632 0.30906,-1.96537 0.30906,-2.96297c0,-1.0664 -0.10266,-2.09383 -0.30906,-3.05703c-0.2408,-0.9632 -0.58668,-1.78961 -1.06828,-2.54641c-0.4816,-0.7224 -1.09838,-1.30639 -1.82078,-1.75359c-0.7224,-0.4472 -1.58159,-0.65172 -2.6136,-0.65172z"></path></g></g></svg>